<?xml version="1.0" encoding="UTF-8" standalone="no"?>
<!DOCTYPE svg PUBLIC "-//W3C//DTD SVG 1.1//EN" "http://www.w3.org/Graphics/SVG/1.1/DTD/svg11.dtd">
<svg width="100%" height="100%" viewBox="0 0 1182 1182" version="1.1" xmlns="http://www.w3.org/2000/svg" xmlns:xlink="http://www.w3.org/1999/xlink" xml:space="preserve" xmlns:serif="http://www.serif.com/" style="fill-rule:evenodd;clip-rule:evenodd;stroke-linejoin:round;stroke-miterlimit:2;">
    <g transform="matrix(1.39443,0,0,0.979398,-623.612,64.1437)">
        <g transform="matrix(0.717139,0,0,1.02104,447.216,-65.493)">
            <path d="M213.452,937.058L585.998,453.889C582.31,433.163 574.932,413.732 569.4,391.711C532.514,256.994 475.341,196.112 388.659,196.112C349.929,196.112 305.667,215.542 272.469,263.47C268.781,268.652 261.404,271.243 244.805,267.356C226.362,263.47 222.674,255.698 226.362,250.517C278.002,172.795 331.487,109.322 440.3,109.322C580.465,109.322 604.441,196.112 635.794,356.736C643.171,394.302 654.237,475.91 663.458,526.429L687.434,652.079C696.655,698.712 705.877,747.936 716.943,795.864C750.14,918.923 812.846,982.396 886.617,982.396C941.946,982.396 969.61,952.603 1004.65,904.674C1008.34,898.198 1015.72,895.607 1034.16,899.493C1050.76,903.379 1052.6,911.151 1050.76,917.628C1004.65,991.464 954.856,1071.78 827.6,1071.78C698.5,1071.78 670.835,984.987 643.171,830.839C637.638,793.273 624.728,715.552 617.351,666.328L609.974,622.286L381.282,937.058C351.774,977.215 340.708,995.35 314.888,1034.21C307.511,1045.87 290.912,1056.23 270.625,1056.23L148.902,1056.23C130.459,1056.23 124.926,1041.98 134.148,1031.62C169.189,992.759 183.944,975.919 213.452,937.058Z" style="fill:white;"/>
        </g>
        <g transform="matrix(1,0,0,1,187.637,1049.99)">
            <path d="M412.654,-158.713C391.493,-119.035 380.912,-101.841 355.782,-62.163C349.169,-51.582 353.137,-37.033 366.363,-37.033L453.655,-37.033C468.204,-37.033 480.107,-47.614 485.398,-59.517C503.914,-99.196 511.85,-117.712 533.012,-158.713L697.015,-480.107L702.306,-435.139C707.596,-384.88 716.855,-305.523 720.822,-267.167C740.662,-109.777 760.501,-21.162 853.083,-21.162C944.344,-21.162 980.054,-103.164 1013.12,-178.552C1014.44,-185.165 1013.12,-193.101 1001.22,-197.069C987.99,-201.037 982.699,-198.391 980.054,-191.778C954.924,-142.842 935.085,-112.422 895.407,-112.422C842.503,-112.422 797.534,-177.23 773.727,-302.878C765.791,-351.814 759.178,-402.073 752.565,-449.687L735.371,-577.981C728.758,-629.562 720.822,-712.887 715.532,-751.242C693.048,-915.246 675.854,-1003.86 575.335,-1003.86C497.301,-1003.86 458.946,-939.053 421.913,-859.697C419.267,-854.406 421.913,-846.47 435.139,-842.503C447.042,-838.535 452.333,-841.18 454.978,-846.47C478.785,-895.407 510.527,-915.246 538.302,-915.246C600.465,-915.246 641.466,-853.083 667.918,-715.532C671.886,-693.048 677.176,-673.208 679.822,-652.047L412.654,-158.713Z" style="fill:none;"/>
        </g>
    </g>
</svg>
